<svg xmlns="http://www.w3.org/2000/svg" xmlns:xlink="http://www.w3.org/1999/xlink" width="415" zoomAndPan="magnify" viewBox="0 0 311.25 111.749997" height="149" preserveAspectRatio="xMidYMid meet" version="1.0"><defs><clipPath id="49ee5c733e"><path d="M 8.339844 4 L 59 4 L 59 62 L 8.339844 62 Z M 8.339844 4 " clip-rule="nonzero"/></clipPath><clipPath id="85b3942860"><path d="M 181 3.128906 L 196 3.128906 L 196 61 L 181 61 Z M 181 3.128906 " clip-rule="nonzero"/></clipPath><clipPath id="ca5adb0a4b"><path d="M 199 3.128906 L 213 3.128906 L 213 61 L 199 61 Z M 199 3.128906 " clip-rule="nonzero"/></clipPath><clipPath id="5e70f4ff2a"><path d="M 8.339844 92 L 21 92 L 21 105 L 8.339844 105 Z M 8.339844 92 " clip-rule="nonzero"/></clipPath><clipPath id="bcbebe7e32"><path d="M 196 96 L 206 96 L 206 108.5 L 196 108.5 Z M 196 96 " clip-rule="nonzero"/></clipPath><clipPath id="52916c0d0c"><path d="M 272 95 L 282 95 L 282 108.5 L 272 108.5 Z M 272 95 " clip-rule="nonzero"/></clipPath><clipPath id="cf9d1c426f"><path d="M 292 95 L 302.382812 95 L 302.382812 105 L 292 105 Z M 292 95 " clip-rule="nonzero"/></clipPath></defs><g clip-path="url(#49ee5c733e)"><path fill="#801f1a" d="M 18.996094 4.253906 C 21.335938 4.171875 23.671875 4.089844 26.011719 4.089844 C 44.410156 4.089844 46.265625 14.324219 46.265625 18.757812 C 46.265625 25.378906 41.023438 31.585938 32.304688 33.03125 C 38.601562 42.953125 50.300781 57.550781 58.289062 60.851562 C 52.640625 61.253906 50.460938 61.335938 49.574219 61.335938 C 40.292969 61.335938 27.710938 40.9375 22.628906 31.421875 C 28.433594 30.855469 36.988281 27.554688 36.988281 19.488281 C 36.988281 15.863281 35.621094 10.054688 25.691406 10.054688 C 23.675781 10.054688 22.140625 10.136719 20.289062 10.621094 L 20.289062 52.792969 C 20.289062 55.050781 20.289062 58.269531 23.996094 60.851562 L 8.339844 60.851562 C 12.058594 58.269531 12.058594 55.050781 12.058594 52.792969 L 12.058594 12.472656 C 12.058594 10.214844 12.058594 6.984375 8.339844 4.414062 C 11.894531 4.414062 15.441406 4.332031 18.996094 4.253906 " fill-opacity="1" fill-rule="nonzero"/></g><path fill="#801f1a" d="M 61.539062 40.128906 C 61.140625 48.671875 66.460938 55.929688 78.644531 55.929688 C 84.859375 55.929688 89.78125 54.5625 94.621094 51.902344 L 89.296875 60.28125 C 84.941406 61.660156 81.304688 62.0625 76.953125 62.0625 C 62.75 62.0625 53.152344 54.480469 53.152344 40.855469 C 53.152344 28.921875 61.300781 20.136719 74.609375 20.136719 C 89.78125 20.136719 94.296875 31.582031 94.050781 40.128906 Z M 84.859375 34.882812 C 84.375 29.648438 80.253906 26.257812 74.207031 26.257812 C 68.082031 26.257812 63.480469 29.648438 62.347656 34.882812 Z M 84.859375 34.882812 " fill-opacity="1" fill-rule="nonzero"/><path fill="#801f1a" d="M 117.496094 20.136719 C 119.191406 20.136719 120.890625 20.296875 122.578125 20.378906 C 124.839844 20.539062 127.097656 20.621094 129.355469 20.621094 C 133.230469 20.621094 137.589844 20.214844 141.777344 19.40625 L 139.929688 24.082031 C 139.28125 25.703125 138.957031 26.582031 133.070312 25.851562 L 128.550781 25.296875 C 131.777344 27.070312 134.84375 30.367188 134.84375 35.695312 C 134.84375 46.496094 122.984375 48.355469 120.644531 48.671875 C 118.703125 48.996094 113.460938 49.320312 113.460938 51.414062 C 113.460938 51.902344 114.109375 53.035156 115.882812 53.035156 L 119.109375 53.035156 C 126.210938 53.035156 141.863281 53.113281 141.863281 65.28125 C 141.863281 74.3125 131.132812 80.449219 117.742188 80.449219 C 103.457031 80.449219 94.421875 75.203125 94.421875 68.59375 C 94.421875 64.566406 97.648438 61.660156 103.058594 61.660156 C 104.671875 61.660156 106.039062 62.0625 107.492188 62.863281 C 105.234375 63.023438 103.945312 64.726562 103.945312 66.902344 C 103.945312 71.09375 108.460938 75.121094 117.253906 75.121094 C 127.984375 75.121094 132.582031 70.769531 132.582031 65.929688 C 132.582031 62.308594 129.839844 58.347656 118.382812 58.347656 C 114.675781 58.347656 111.765625 58.589844 109.585938 58.589844 C 105.636719 58.589844 104.824219 56.984375 103.945312 54.886719 C 103.617188 54.238281 103.378906 53.589844 103.378906 52.875 C 103.378906 51.414062 104.585938 50.695312 105.394531 50.292969 L 110.152344 47.953125 C 103.296875 46.820312 98.371094 41.738281 98.371094 34.570312 C 98.371094 26.828125 105.234375 20.136719 117.496094 20.136719 M 106.765625 33.355469 C 106.765625 39.003906 111.367188 43.679688 117.410156 43.679688 C 122.664062 43.679688 126.453125 40.289062 126.453125 35.046875 C 126.453125 29.8125 121.777344 25.539062 115.960938 25.539062 C 110.640625 25.539062 106.765625 28.761719 106.765625 33.355469 " fill-opacity="1" fill-rule="nonzero"/><path fill="#801f1a" d="M 151.945312 20.863281 C 154.203125 20.460938 156.621094 20.136719 159.289062 20.136719 C 172.675781 20.136719 173.96875 28.679688 173.96875 34.003906 L 173.96875 49.726562 C 173.96875 54.402344 176.550781 55.292969 179.777344 55.453125 L 181.308594 55.453125 L 177.441406 60.851562 L 176.226562 60.851562 C 173.640625 60.851562 166.304688 60.6875 166.304688 51.820312 L 166.304688 39.167969 C 163.800781 40.855469 161.78125 41.101562 157.75 42.0625 C 154.121094 42.953125 149.601562 44.238281 149.601562 49.15625 C 149.601562 50.929688 150.324219 55.929688 157.75 55.929688 C 159.925781 55.929688 162.347656 55.605469 164.769531 54.886719 L 159.601562 61.335938 C 157.90625 61.820312 156.214844 62.0625 154.441406 62.0625 C 146.617188 62.0625 141.371094 56.808594 141.371094 49.320312 C 141.371094 40.613281 149.039062 39.003906 155.085938 37.625 C 162.027344 36.015625 165.980469 35.371094 165.980469 31.339844 C 165.980469 28.191406 163.398438 26.257812 158.554688 26.257812 C 156.863281 26.257812 151.78125 26.5 146.859375 29.246094 Z M 151.945312 20.863281 " fill-opacity="1" fill-rule="nonzero"/><g clip-path="url(#85b3942860)"><path fill="#801f1a" d="M 188 4.414062 C 189.699219 4.414062 190.90625 4.089844 192.277344 3.117188 L 192.277344 55.210938 C 192.277344 57.304688 192.757812 59.238281 195.097656 60.851562 L 181.785156 60.851562 C 184.125 59.242188 184.613281 57.308594 184.613281 55.210938 L 184.613281 10.050781 C 184.613281 7.957031 184.125 6.023438 181.785156 4.414062 Z M 188 4.414062 " fill-opacity="1" fill-rule="nonzero"/></g><g clip-path="url(#ca5adb0a4b)"><path fill="#801f1a" d="M 205.832031 4.414062 C 207.523438 4.414062 208.734375 4.089844 210.105469 3.117188 L 210.105469 55.210938 C 210.105469 57.304688 210.585938 59.238281 212.925781 60.851562 L 199.617188 60.851562 C 201.957031 59.242188 202.441406 57.308594 202.441406 55.210938 L 202.441406 10.050781 C 202.441406 7.957031 201.957031 6.023438 199.617188 4.414062 Z M 205.832031 4.414062 " fill-opacity="1" fill-rule="nonzero"/></g><path fill="#801f1a" d="M 262.222656 41.101562 C 262.222656 53.347656 252.21875 62.0625 239.390625 62.0625 C 225.4375 62.0625 217.363281 51.820312 217.363281 41.101562 C 217.363281 28.921875 227.367188 20.136719 240.113281 20.136719 C 254.15625 20.136719 262.222656 30.371094 262.222656 41.101562 M 225.753906 41.101562 C 225.753906 48.671875 230.433594 55.929688 239.953125 55.929688 C 248.183594 55.929688 253.832031 50.046875 253.832031 41.101562 C 253.832031 33.519531 249.152344 26.257812 239.632812 26.257812 C 231.402344 26.257812 225.753906 32.152344 225.753906 41.101562 " fill-opacity="1" fill-rule="nonzero"/><path fill="#801f1a" d="M 294.25 28.761719 C 288.839844 25.613281 285.050781 25.539062 282.871094 25.539062 C 277.625 25.539062 275.769531 27.878906 275.769531 30.054688 C 275.769531 33.273438 279.882812 34.652344 285.855469 36.664062 C 290.855469 38.355469 298.277344 40.773438 298.277344 48.589844 C 298.277344 53.589844 295.371094 62.0625 280.207031 62.0625 C 276.011719 62.0625 272.136719 61.335938 267.859375 59.726562 L 264.792969 51.25 C 268.992188 53.914062 275.039062 56.65625 280.207031 56.65625 C 286.984375 56.65625 290.292969 53.996094 290.292969 50.847656 C 290.292969 46.25 284.078125 44.804688 279.800781 43.113281 C 272.621094 40.289062 267.777344 37.789062 267.777344 31.582031 C 267.777344 26.421875 270.847656 20.136719 283.671875 20.136719 C 287.464844 20.136719 290.773438 20.539062 294.246094 21.582031 L 294.246094 28.761719 Z M 294.25 28.761719 " fill-opacity="1" fill-rule="nonzero"/><path fill="#801f1a" d="M 51.773438 4.6875 L 172.328125 4.6875 L 172.328125 8.644531 L 51.773438 8.644531 Z M 51.773438 4.6875 " fill-opacity="1" fill-rule="nonzero"/><path fill="#801f1a" d="M 216.324219 4.6875 L 296.394531 4.6875 L 296.394531 8.644531 L 216.324219 8.644531 Z M 216.324219 4.6875 " fill-opacity="1" fill-rule="nonzero"/><g clip-path="url(#5e70f4ff2a)"><path fill="#801f1a" d="M 19.078125 94.46875 C 18.566406 94.0625 17.625 93.496094 15.90625 93.496094 C 13.011719 93.496094 10.933594 95.347656 10.933594 98.070312 C 10.933594 100.9375 13.042969 103.195312 16.320312 103.195312 C 17.109375 103.195312 17.808594 103.070312 18.476562 102.871094 L 18.476562 99.773438 C 18.476562 99.207031 18.429688 98.707031 17.882812 98.242188 L 20.335938 98.242188 C 20.296875 98.34375 20.230469 98.535156 20.230469 98.761719 L 20.230469 103.195312 C 20.230469 103.488281 20.230469 103.679688 20.3125 103.984375 C 18.890625 104.429688 17.570312 104.601562 16.199219 104.601562 C 11.414062 104.601562 8.960938 101.65625 8.960938 98.414062 C 8.960938 95.347656 11.121094 92.089844 16.0625 92.089844 C 17.585938 92.089844 17.859375 92.3125 19.078125 92.414062 Z M 19.078125 94.46875 " fill-opacity="1" fill-rule="nonzero"/></g><path fill="#801f1a" d="M 23.640625 95.84375 C 24.121094 95.753906 24.636719 95.691406 25.199219 95.691406 C 28.050781 95.691406 28.324219 97.503906 28.324219 98.636719 L 28.324219 101.976562 C 28.324219 102.96875 28.871094 103.164062 29.558594 103.195312 L 29.886719 103.195312 L 29.058594 104.347656 L 28.800781 104.347656 C 28.257812 104.347656 26.691406 104.308594 26.691406 102.421875 L 26.691406 99.730469 C 26.160156 100.09375 25.730469 100.144531 24.875 100.347656 C 24.101562 100.539062 23.140625 100.8125 23.140625 101.855469 C 23.140625 102.230469 23.300781 103.285156 24.875 103.285156 C 25.335938 103.285156 25.855469 103.234375 26.367188 103.070312 L 25.269531 104.449219 C 24.910156 104.550781 24.546875 104.601562 24.175781 104.601562 C 22.511719 104.601562 21.394531 103.488281 21.394531 101.886719 C 21.394531 100.046875 23.023438 99.699219 24.308594 99.398438 C 25.78125 99.0625 26.625 98.929688 26.625 98.070312 C 26.625 97.402344 26.078125 96.988281 25.046875 96.988281 C 24.6875 96.988281 23.605469 97.039062 22.5625 97.625 Z M 23.640625 95.84375 " fill-opacity="1" fill-rule="nonzero"/><path fill="#801f1a" d="M 35.851562 97.523438 C 34.699219 96.855469 33.898438 96.835938 33.429688 96.835938 C 32.3125 96.835938 31.921875 97.332031 31.921875 97.796875 C 31.921875 98.484375 32.796875 98.769531 34.070312 99.203125 C 35.128906 99.558594 36.707031 100.074219 36.707031 101.726562 C 36.707031 102.796875 36.089844 104.601562 32.863281 104.601562 C 31.972656 104.601562 31.152344 104.449219 30.238281 104.105469 L 29.589844 102.300781 C 30.480469 102.871094 31.769531 103.457031 32.863281 103.457031 C 34.304688 103.457031 35.011719 102.890625 35.011719 102.222656 C 35.011719 101.238281 33.6875 100.9375 32.78125 100.570312 C 31.25 99.972656 30.222656 99.4375 30.222656 98.121094 C 30.222656 97.027344 30.878906 95.683594 33.597656 95.683594 C 34.410156 95.683594 35.109375 95.773438 35.851562 95.996094 Z M 35.851562 97.523438 " fill-opacity="1" fill-rule="nonzero"/><path fill="#801f1a" d="M 39.671875 93.375 L 39.671875 96.035156 L 41.597656 96.035156 C 41.835938 96.035156 42.007812 95.996094 42.15625 95.964844 L 42.15625 97.625 C 41.917969 97.261719 41.558594 97.230469 41.285156 97.230469 L 39.675781 97.230469 L 39.675781 101.582031 C 39.675781 103.164062 40.738281 103.394531 41.460938 103.394531 C 41.683594 103.394531 41.90625 103.363281 42.128906 103.292969 L 41.132812 104.550781 C 40.945312 104.578125 40.773438 104.597656 40.582031 104.597656 C 38.953125 104.597656 38.046875 103.484375 38.046875 101.875 L 38.046875 97.230469 L 36.847656 97.230469 L 36.847656 96.613281 C 38.953125 96.339844 39.09375 94.191406 39.035156 93.371094 L 39.671875 93.371094 Z M 39.671875 93.375 " fill-opacity="1" fill-rule="nonzero"/><path fill="#801f1a" d="M 42.675781 104.347656 C 43.171875 104.003906 43.277344 103.589844 43.277344 103.144531 L 43.277344 97.230469 C 43.277344 96.785156 43.171875 96.371094 42.675781 96.027344 L 43.925781 96.027344 C 44.285156 96.027344 44.546875 95.964844 44.824219 95.753906 L 44.824219 97.128906 C 45.214844 96.492188 45.984375 95.691406 47.132812 95.691406 C 47.335938 95.691406 47.527344 95.703125 47.738281 95.753906 L 47.738281 97.433594 C 47.460938 97.25 47.171875 97.160156 46.789062 97.160156 C 45.917969 97.160156 44.90625 97.644531 44.90625 99.609375 L 44.90625 103.140625 C 44.90625 103.566406 45.023438 104.003906 45.589844 104.347656 Z M 42.675781 104.347656 " fill-opacity="1" fill-rule="nonzero"/><path fill="#801f1a" d="M 57.5625 100.144531 C 57.5625 102.75 55.433594 104.601562 52.707031 104.601562 C 49.742188 104.601562 48.027344 102.421875 48.027344 100.144531 C 48.027344 97.554688 50.148438 95.691406 52.863281 95.691406 C 55.847656 95.691406 57.5625 97.867188 57.5625 100.144531 M 49.808594 100.144531 C 49.808594 101.757812 50.804688 103.292969 52.828125 103.292969 C 54.574219 103.292969 55.777344 102.050781 55.777344 100.144531 C 55.777344 98.539062 54.78125 96.988281 52.757812 96.988281 C 51.007812 96.988281 49.808594 98.242188 49.808594 100.144531 " fill-opacity="1" fill-rule="nonzero"/><path fill="#801f1a" d="M 58.539062 104.347656 C 59.035156 104.003906 59.140625 103.589844 59.140625 103.144531 L 59.140625 97.230469 C 59.140625 96.785156 59.035156 96.371094 58.539062 96.027344 L 59.855469 96.027344 C 60.21875 96.027344 60.476562 95.964844 60.769531 95.753906 L 60.769531 96.90625 C 61.230469 96.097656 62.425781 95.691406 63.441406 95.691406 C 65.105469 95.691406 66.613281 96.460938 66.613281 98.394531 L 66.613281 103.140625 C 66.613281 103.585938 66.71875 104.003906 67.214844 104.347656 L 64.382812 104.347656 C 64.882812 104.003906 64.984375 103.585938 64.984375 103.140625 L 64.984375 98.859375 C 64.984375 97.707031 64.179688 96.988281 62.894531 96.988281 C 60.769531 96.988281 60.769531 98.585938 60.769531 98.960938 L 60.769531 103.140625 C 60.769531 103.585938 60.871094 104 61.363281 104.34375 L 58.539062 104.34375 Z M 58.539062 104.347656 " fill-opacity="1" fill-rule="nonzero"/><path fill="#801f1a" d="M 77.660156 100.144531 C 77.660156 102.75 75.527344 104.601562 72.804688 104.601562 C 69.835938 104.601562 68.125 102.421875 68.125 100.144531 C 68.125 97.554688 70.25 95.691406 72.960938 95.691406 C 75.941406 95.691406 77.660156 97.867188 77.660156 100.144531 M 69.90625 100.144531 C 69.90625 101.757812 70.902344 103.292969 72.925781 103.292969 C 74.671875 103.292969 75.875 102.050781 75.875 100.144531 C 75.875 98.539062 74.878906 96.988281 72.855469 96.988281 C 71.105469 96.988281 69.90625 98.242188 69.90625 100.144531 " fill-opacity="1" fill-rule="nonzero"/><path fill="#801f1a" d="M 78.636719 104.347656 C 79.132812 104.003906 79.238281 103.589844 79.238281 103.144531 L 79.238281 97.230469 C 79.238281 96.785156 79.132812 96.371094 78.636719 96.027344 L 79.921875 96.027344 C 80.277344 96.027344 80.539062 95.964844 80.828125 95.753906 L 80.828125 97.089844 C 81.515625 95.914062 82.578125 95.691406 83.402344 95.691406 C 84.109375 95.691406 85.511719 95.804688 86.246094 97.300781 C 87.089844 95.945312 88.285156 95.691406 89.199219 95.691406 C 92.128906 95.691406 92.355469 97.929688 92.355469 99.132812 L 92.355469 103.140625 C 92.355469 103.585938 92.457031 104.003906 92.957031 104.347656 L 90.125 104.347656 C 90.621094 104.003906 90.726562 103.585938 90.726562 103.140625 L 90.726562 99.546875 C 90.726562 98.484375 90.523438 96.988281 88.71875 96.988281 C 86.695312 96.988281 86.613281 98.65625 86.613281 99.4375 L 86.613281 103.140625 C 86.613281 103.585938 86.710938 104.003906 87.207031 104.347656 L 84.375 104.347656 C 84.882812 104.003906 84.980469 103.585938 84.980469 103.140625 L 84.980469 99.425781 C 84.980469 98.808594 84.910156 96.988281 82.941406 96.988281 C 80.867188 96.988281 80.867188 98.808594 80.867188 99.050781 L 80.867188 103.140625 C 80.867188 103.585938 80.972656 104.003906 81.460938 104.347656 Z M 78.636719 104.347656 " fill-opacity="1" fill-rule="nonzero"/><path fill="#801f1a" d="M 95.234375 96.035156 C 95.59375 96.035156 95.855469 95.964844 96.144531 95.753906 L 96.144531 103.144531 C 96.144531 103.589844 96.246094 104.003906 96.746094 104.347656 L 93.914062 104.347656 C 94.410156 104.003906 94.515625 103.589844 94.515625 103.144531 L 94.515625 97.230469 C 94.515625 96.785156 94.410156 96.371094 93.914062 96.035156 Z M 95.234375 92.636719 C 95.816406 92.636719 96.332031 93.152344 96.332031 93.738281 C 96.332031 94.316406 95.816406 94.832031 95.234375 94.832031 C 94.652344 94.832031 94.136719 94.316406 94.136719 93.738281 C 94.136719 93.152344 94.652344 92.636719 95.234375 92.636719 " fill-opacity="1" fill-rule="nonzero"/><path fill="#801f1a" d="M 99.675781 95.84375 C 100.15625 95.753906 100.671875 95.691406 101.234375 95.691406 C 104.085938 95.691406 104.355469 97.503906 104.355469 98.636719 L 104.355469 101.976562 C 104.355469 102.96875 104.902344 103.164062 105.59375 103.195312 L 105.917969 103.195312 L 105.09375 104.347656 L 104.839844 104.347656 C 104.292969 104.347656 102.726562 104.308594 102.726562 102.421875 L 102.726562 99.730469 C 102.195312 100.09375 101.765625 100.144531 100.910156 100.347656 C 100.136719 100.539062 99.175781 100.8125 99.175781 101.855469 C 99.175781 102.230469 99.332031 103.285156 100.910156 103.285156 C 101.378906 103.285156 101.882812 103.234375 102.402344 103.070312 L 101.304688 104.449219 C 100.945312 104.550781 100.582031 104.601562 100.210938 104.601562 C 98.542969 104.601562 97.429688 103.488281 97.429688 101.886719 C 97.429688 100.046875 99.058594 99.699219 100.34375 99.398438 C 101.824219 99.0625 102.664062 98.929688 102.664062 98.070312 C 102.664062 97.402344 102.113281 96.988281 101.082031 96.988281 C 100.722656 96.988281 99.644531 97.039062 98.597656 97.625 Z M 99.675781 95.84375 " fill-opacity="1" fill-rule="nonzero"/><path fill="#801f1a" d="M 116.804688 99.429688 C 120.238281 102.769531 122.15625 103.8125 123.445312 104.347656 L 121.214844 104.40625 C 120.203125 104.449219 119.140625 103.953125 117.578125 102.476562 C 116.375 104.1875 115.25 104.601562 113.800781 104.601562 C 111.457031 104.601562 109.609375 103.347656 109.609375 101.117188 C 109.609375 99.882812 110.070312 98.566406 112.179688 97.089844 C 111.300781 96.289062 110.703125 95.519531 110.703125 94.578125 C 110.703125 93.355469 111.5625 92.089844 113.5625 92.089844 C 115.4375 92.089844 116.308594 93.253906 116.308594 94.488281 C 116.308594 95.53125 115.570312 96.390625 114.558594 97.230469 Z M 113.222656 98.242188 C 112.464844 98.738281 111.507812 99.660156 111.507812 100.886719 C 111.507812 102.332031 112.515625 103.316406 113.992188 103.316406 C 114.902344 103.316406 115.808594 103.09375 116.84375 101.804688 Z M 114.730469 94.40625 C 114.730469 93.6875 114.230469 93.183594 113.480469 93.183594 C 112.789062 93.183594 112.277344 93.597656 112.277344 94.265625 C 112.277344 95.035156 112.945312 95.722656 113.53125 96.148438 C 113.859375 95.945312 114.730469 95.347656 114.730469 94.40625 " fill-opacity="1" fill-rule="nonzero"/><path fill="#801f1a" d="M 130.714844 92.351562 L 130.714844 94.316406 C 130.386719 93.941406 129.925781 93.6875 128.910156 93.699219 L 126.597656 93.75 L 126.597656 97.179688 L 129.066406 97.179688 C 129.292969 97.179688 129.496094 97.160156 129.683594 97.128906 L 129.683594 98.992188 C 129.355469 98.667969 128.984375 98.546875 128.378906 98.546875 L 126.597656 98.546875 L 126.597656 102.847656 C 127.640625 102.949219 128.480469 102.96875 128.824219 102.96875 C 130.714844 102.96875 131.65625 102.597656 132.414062 101.929688 L 131.539062 104.347656 L 124.054688 104.347656 C 124.851562 103.789062 124.851562 103.070312 124.851562 102.628906 L 124.851562 94.0625 C 124.851562 93.617188 124.851562 92.898438 124.054688 92.351562 Z M 130.714844 92.351562 " fill-opacity="1" fill-rule="nonzero"/><path fill="#801f1a" d="M 133.082031 96.035156 C 133.527344 96.035156 133.800781 95.914062 134.007812 95.742188 C 134.023438 95.945312 134.089844 96.21875 134.175781 96.421875 L 136.695312 102.445312 L 138.71875 97.898438 C 138.976562 97.324219 139.015625 97.058594 139.015625 96.929688 C 139.015625 96.613281 138.839844 96.238281 138.425781 96.035156 L 141.070312 96.035156 L 136.988281 104.824219 C 135.667969 104.105469 135.445312 103.660156 135.105469 102.871094 L 132.738281 97.371094 C 132.441406 96.664062 131.890625 96.257812 131.46875 96.035156 Z M 133.082031 96.035156 " fill-opacity="1" fill-rule="nonzero"/><path fill="#801f1a" d="M 142.800781 99.941406 C 142.71875 101.757812 143.847656 103.292969 146.4375 103.292969 C 147.757812 103.292969 148.808594 103 149.832031 102.445312 L 148.703125 104.226562 C 147.773438 104.507812 147 104.601562 146.078125 104.601562 C 143.058594 104.601562 141.023438 102.992188 141.023438 100.09375 C 141.023438 97.554688 142.75 95.683594 145.582031 95.683594 C 148.808594 95.683594 149.765625 98.121094 149.714844 99.945312 L 142.800781 99.945312 Z M 147.757812 98.820312 C 147.65625 97.707031 146.78125 96.976562 145.492188 96.976562 C 144.195312 96.976562 143.214844 97.707031 142.972656 98.820312 Z M 147.757812 98.820312 " fill-opacity="1" fill-rule="nonzero"/><path fill="#801f1a" d="M 150.640625 104.347656 C 151.140625 104.003906 151.234375 103.589844 151.234375 103.144531 L 151.234375 97.230469 C 151.234375 96.785156 151.140625 96.371094 150.640625 96.027344 L 151.960938 96.027344 C 152.320312 96.027344 152.574219 95.964844 152.871094 95.753906 L 152.871094 96.90625 C 153.332031 96.097656 154.535156 95.691406 155.542969 95.691406 C 157.207031 95.691406 158.714844 96.460938 158.714844 98.394531 L 158.714844 103.140625 C 158.714844 103.585938 158.816406 104.003906 159.320312 104.347656 L 156.488281 104.347656 C 156.984375 104.003906 157.085938 103.585938 157.085938 103.140625 L 157.085938 98.859375 C 157.085938 97.707031 156.28125 96.988281 155 96.988281 C 152.871094 96.988281 152.871094 98.585938 152.871094 98.960938 L 152.871094 103.140625 C 152.871094 103.585938 152.96875 104 153.46875 104.34375 L 150.640625 104.34375 Z M 150.640625 104.347656 " fill-opacity="1" fill-rule="nonzero"/><path fill="#801f1a" d="M 162.554688 93.375 L 162.554688 96.035156 L 164.476562 96.035156 C 164.71875 96.035156 164.890625 95.996094 165.042969 95.964844 L 165.042969 97.625 C 164.804688 97.261719 164.445312 97.230469 164.175781 97.230469 L 162.554688 97.230469 L 162.554688 101.582031 C 162.554688 103.164062 163.625 103.394531 164.34375 103.394531 C 164.5625 103.394531 164.789062 103.363281 165.011719 103.292969 L 164.011719 104.550781 C 163.824219 104.578125 163.652344 104.597656 163.464844 104.597656 C 161.835938 104.597656 160.933594 103.484375 160.933594 101.875 L 160.933594 97.230469 L 159.722656 97.230469 L 159.722656 96.613281 C 161.835938 96.339844 161.972656 94.191406 161.921875 93.371094 L 162.554688 93.371094 Z M 162.554688 93.375 " fill-opacity="1" fill-rule="nonzero"/><path fill="#801f1a" d="M 175.042969 100.144531 C 175.042969 102.75 172.914062 104.601562 170.1875 104.601562 C 167.21875 104.601562 165.507812 102.421875 165.507812 100.144531 C 165.507812 97.554688 167.636719 95.691406 170.339844 95.691406 C 173.328125 95.691406 175.042969 97.867188 175.042969 100.144531 M 167.292969 100.144531 C 167.292969 101.757812 168.285156 103.292969 170.308594 103.292969 C 172.058594 103.292969 173.257812 102.050781 173.257812 100.144531 C 173.257812 98.539062 172.265625 96.988281 170.238281 96.988281 C 168.492188 96.988281 167.292969 98.242188 167.292969 100.144531 " fill-opacity="1" fill-rule="nonzero"/><path fill="#801f1a" d="M 181.847656 97.523438 C 180.699219 96.855469 179.890625 96.835938 179.433594 96.835938 C 178.3125 96.835938 177.921875 97.332031 177.921875 97.796875 C 177.921875 98.484375 178.796875 98.769531 180.066406 99.203125 C 181.128906 99.558594 182.707031 100.074219 182.707031 101.726562 C 182.707031 102.796875 182.089844 104.601562 178.863281 104.601562 C 177.972656 104.601562 177.144531 104.449219 176.242188 104.105469 L 175.585938 102.300781 C 176.480469 102.871094 177.765625 103.457031 178.863281 103.457031 C 180.308594 103.457031 181.003906 102.890625 181.003906 102.222656 C 181.003906 101.238281 179.6875 100.9375 178.777344 100.570312 C 177.253906 99.972656 176.222656 99.4375 176.222656 98.121094 C 176.222656 97.027344 176.871094 95.683594 179.597656 95.683594 C 180.40625 95.683594 181.105469 95.773438 181.84375 95.996094 L 181.84375 97.523438 Z M 181.847656 97.523438 " fill-opacity="1" fill-rule="nonzero"/><path fill="#801f1a" d="M 189.53125 92.351562 C 190.335938 92.351562 190.609375 92.261719 190.867188 92.058594 L 190.867188 102.75 C 191.074219 102.820312 191.296875 102.851562 191.503906 102.851562 C 192.738281 102.851562 193.664062 101.835938 193.664062 100.21875 C 193.664062 98.464844 192.566406 97.574219 191.582031 97.574219 L 191.328125 97.574219 L 192.207031 95.996094 C 192.414062 95.96875 192.636719 95.945312 192.839844 95.945312 C 195.226562 95.945312 196.921875 97.503906 196.921875 99.835938 C 196.921875 102.273438 195.160156 104.511719 191.386719 104.511719 C 190.285156 104.511719 188.625 104.378906 187.304688 104.003906 C 187.816406 103.515625 187.785156 102.902344 187.785156 102.03125 L 187.785156 94.183594 C 187.785156 93.375 187.589844 92.777344 187.082031 92.351562 Z M 189.53125 92.351562 " fill-opacity="1" fill-rule="nonzero"/><g clip-path="url(#bcbebe7e32)"><path fill="#801f1a" d="M 200.347656 96.117188 L 202.339844 101.136719 L 203.417969 97.949219 C 203.574219 97.484375 203.640625 97.25 203.640625 97.058594 C 203.640625 96.683594 203.4375 96.390625 203.128906 96.117188 L 205.785156 96.117188 L 202.304688 105.367188 C 202.015625 106.136719 201.378906 108.265625 198.105469 108.265625 C 197.761719 108.265625 197.402344 108.253906 197.058594 108.191406 L 198.429688 106.453125 C 198.582031 106.460938 198.738281 106.460938 198.894531 106.460938 C 200.285156 106.460938 200.730469 105.269531 200.796875 105.027344 L 201.039062 104.285156 C 200.011719 103.558594 199.839844 103.019531 199.492188 102.222656 L 197.503906 97.453125 C 197.296875 96.957031 197.007812 96.492188 196.488281 96.117188 Z M 200.347656 96.117188 " fill-opacity="1" fill-rule="nonzero"/></g><path fill="#801f1a" d="M 212.351562 92.351562 L 215.355469 101.070312 L 217.464844 94.40625 C 217.535156 94.164062 217.648438 93.667969 217.648438 93.394531 C 217.648438 92.960938 217.363281 92.636719 216.96875 92.351562 L 220.058594 92.351562 L 215.917969 104.601562 C 213.28125 103.691406 212.714844 103.335938 211.972656 101.332031 L 209.421875 94.285156 C 209.046875 93.242188 208.890625 92.828125 208.40625 92.351562 Z M 212.351562 92.351562 " fill-opacity="1" fill-rule="nonzero"/><path fill="#801f1a" d="M 222.507812 100.226562 C 222.4375 101.632812 223.277344 102.847656 225.027344 102.847656 C 225.710938 102.847656 226.722656 102.648438 228.21875 101.878906 L 227.515625 103.953125 C 226.449219 104.398438 225.457031 104.511719 224.40625 104.511719 C 220.855469 104.511719 219.246094 102.617188 219.246094 100.269531 C 219.246094 98.089844 220.878906 95.945312 223.863281 95.945312 C 227.359375 95.945312 228.132812 98.546875 228.113281 100.226562 Z M 225.027344 98.761719 C 225.011719 98.265625 224.789062 97.523438 223.875 97.523438 C 223.140625 97.523438 222.710938 98.121094 222.625 98.761719 Z M 225.027344 98.761719 " fill-opacity="1" fill-rule="nonzero"/><path fill="#801f1a" d="M 228.820312 104.347656 C 229.28125 103.980469 229.417969 103.488281 229.417969 102.847656 L 229.417969 97.949219 C 229.417969 97.148438 229.226562 96.542969 228.707031 96.117188 L 230.976562 96.117188 C 231.78125 96.117188 232.070312 96.027344 232.335938 95.824219 L 232.335938 97.179688 C 233.019531 95.84375 233.996094 95.773438 234.628906 95.773438 L 235.058594 95.773438 L 235.058594 98.050781 C 234.871094 97.992188 234.578125 97.898438 234.21875 97.898438 C 233.398438 97.898438 232.5 98.324219 232.5 99.40625 L 232.5 103.242188 C 232.5 103.640625 232.738281 104.085938 233.070312 104.347656 Z M 228.820312 104.347656 " fill-opacity="1" fill-rule="nonzero"/><path fill="#801f1a" d="M 236.964844 96.199219 C 237.683594 95.996094 238.28125 95.945312 238.96875 95.945312 C 242.226562 95.945312 242.535156 97.816406 242.535156 99.042969 L 242.535156 101.503906 C 242.535156 102.351562 243.152344 102.847656 243.722656 102.847656 L 243.988281 102.847656 L 243.203125 104.5 C 243.03125 104.511719 242.878906 104.511719 242.707031 104.511719 C 239.703125 104.511719 239.445312 102.71875 239.445312 102 L 239.445312 100.367188 C 239.328125 100.449219 239.238281 100.5 239.070312 100.570312 C 238.503906 100.792969 237.804688 100.964844 237.804688 101.804688 C 237.804688 102.496094 238.265625 102.941406 238.949219 102.941406 C 239.050781 102.941406 239.15625 102.941406 239.257812 102.921875 L 238.4375 104.457031 C 238.109375 104.5 237.75 104.511719 237.476562 104.511719 C 235.3125 104.511719 234.542969 103.234375 234.542969 101.980469 C 234.542969 101.109375 234.9375 99.875 237.074219 99.429688 L 238.078125 99.214844 C 238.761719 99.082031 239.480469 98.960938 239.480469 98.273438 C 239.480469 97.917969 239.257812 97.523438 238.230469 97.523438 C 237.820312 97.523438 237.027344 97.574219 236.101562 98.101562 Z M 236.964844 96.199219 " fill-opacity="1" fill-rule="nonzero"/><path fill="#801f1a" d="M 252.945312 92.351562 L 255.582031 99.457031 L 257.78125 92.351562 L 262.167969 92.351562 C 261.519531 92.6875 261.398438 93.273438 261.484375 94.0625 L 262.289062 101.828125 C 262.410156 102.992188 262.5625 103.566406 263.199219 104.347656 L 258.484375 104.347656 C 258.910156 103.902344 259.046875 103.417969 259.046875 103.019531 C 259.046875 102.648438 259.015625 102.402344 258.976562 102.050781 L 258.429688 96.460938 L 255.925781 104.570312 C 254.949219 104.207031 254.519531 103.933594 254.109375 103.617188 C 253.714844 103.335938 253.492188 103.164062 253.167969 102.273438 L 251.023438 96.511719 L 250.386719 102.273438 C 250.285156 103.265625 250.355469 103.859375 251.109375 104.347656 L 247.664062 104.347656 C 248.023438 104.003906 248.351562 103.488281 248.503906 102.304688 L 249.496094 94.539062 C 249.546875 94.09375 249.703125 93.121094 248.828125 92.351562 Z M 252.945312 92.351562 " fill-opacity="1" fill-rule="nonzero"/><path fill="#801f1a" d="M 265.703125 96.199219 C 266.421875 95.996094 267.019531 95.945312 267.707031 95.945312 C 270.964844 95.945312 271.273438 97.816406 271.273438 99.042969 L 271.273438 101.503906 C 271.273438 102.351562 271.890625 102.847656 272.460938 102.847656 L 272.726562 102.847656 L 271.941406 104.5 C 271.769531 104.511719 271.617188 104.511719 271.445312 104.511719 C 268.449219 104.511719 268.183594 102.71875 268.183594 102 L 268.183594 100.367188 C 268.066406 100.449219 267.976562 100.5 267.808594 100.570312 C 267.242188 100.792969 266.542969 100.964844 266.542969 101.804688 C 266.542969 102.496094 267.003906 102.941406 267.6875 102.941406 C 267.792969 102.941406 267.894531 102.941406 268 102.921875 L 267.175781 104.457031 C 266.851562 104.5 266.492188 104.511719 266.21875 104.511719 C 264.054688 104.511719 263.28125 103.234375 263.28125 101.980469 C 263.28125 101.109375 263.675781 99.875 265.816406 99.429688 L 266.816406 99.214844 C 267.503906 99.082031 268.222656 98.960938 268.222656 98.273438 C 268.222656 97.917969 268 97.523438 266.96875 97.523438 C 266.558594 97.523438 265.773438 97.574219 264.839844 98.101562 Z M 265.703125 96.199219 " fill-opacity="1" fill-rule="nonzero"/><g clip-path="url(#52916c0d0c)"><path fill="#801f1a" d="M 281.152344 97.707031 L 280.125 97.605469 C 280.863281 98.210938 280.898438 98.890625 280.898438 99.324219 C 280.898438 102.128906 277.636719 102.007812 276.605469 102.28125 C 276.472656 102.324219 276.210938 102.402344 276.210938 102.648438 C 276.210938 102.71875 276.246094 102.890625 276.570312 102.890625 C 277 102.890625 277.226562 102.769531 278.203125 102.769531 C 280.824219 102.769531 281.960938 103.953125 281.960938 105.371094 C 281.960938 106.574219 281.1875 108.386719 277.039062 108.386719 C 273.28125 108.386719 272.460938 107.152344 272.460938 106.230469 C 272.460938 105.25 273.488281 104.753906 274.414062 104.753906 C 274.980469 104.753906 275.335938 104.855469 275.679688 105.027344 C 275.183594 105.117188 274.960938 105.339844 274.960938 105.816406 C 274.960938 106.65625 275.835938 106.847656 276.730469 106.847656 C 277.777344 106.847656 278.527344 106.351562 278.527344 105.472656 C 278.527344 104.15625 277.273438 104.132812 276.816406 104.132812 C 275.714844 104.132812 275.613281 104.238281 275.335938 104.238281 C 274.363281 104.238281 273.847656 103.042969 273.847656 102.667969 C 273.847656 102.421875 274.039062 102.375 274.292969 102.285156 C 274.414062 102.253906 274.515625 102.222656 274.636719 102.179688 C 274.738281 102.152344 275.082031 102.078125 275.082031 101.980469 C 275.082031 101.90625 274.875 101.855469 274.808594 101.835938 C 274.566406 101.777344 274.140625 101.53125 273.828125 101.28125 C 273.140625 100.691406 272.902344 99.957031 272.902344 99.183594 C 272.902344 97.089844 274.671875 95.945312 276.878906 95.945312 C 277.410156 95.945312 278.148438 96.039062 278.597656 96.097656 C 279.691406 96.140625 280.804688 96.097656 281.976562 95.996094 Z M 276.953125 100.664062 C 277.347656 100.664062 277.980469 100.5 277.980469 99.164062 C 277.980469 98.980469 277.945312 97.574219 276.832031 97.574219 C 276.09375 97.574219 275.820312 98.222656 275.820312 98.910156 C 275.820312 99.253906 275.871094 100.664062 276.953125 100.664062 " fill-opacity="1" fill-rule="nonzero"/></g><path fill="#801f1a" d="M 284.75 92.351562 C 285.558594 92.351562 285.832031 92.261719 286.09375 92.058594 L 286.09375 102.847656 C 286.09375 103.488281 286.226562 103.984375 286.691406 104.347656 L 282.40625 104.347656 C 282.867188 103.980469 283.003906 103.488281 283.003906 102.847656 L 283.003906 94.183594 C 283.003906 93.375 282.816406 92.777344 282.300781 92.351562 Z M 284.75 92.351562 " fill-opacity="1" fill-rule="nonzero"/><path fill="#801f1a" d="M 287.496094 104.347656 C 287.957031 103.980469 288.101562 103.488281 288.101562 102.847656 L 288.101562 97.949219 C 288.101562 97.148438 287.90625 96.542969 287.394531 96.117188 L 289.847656 96.117188 C 290.65625 96.117188 290.925781 96.035156 291.183594 95.824219 L 291.183594 102.847656 C 291.183594 103.488281 291.320312 103.984375 291.789062 104.347656 Z M 289.464844 92.019531 C 290.429688 92.019531 291.21875 92.808594 291.21875 93.769531 C 291.21875 94.730469 290.429688 95.519531 289.464844 95.519531 C 288.507812 95.519531 287.71875 94.730469 287.71875 93.769531 C 287.71875 92.808594 288.507812 92.019531 289.464844 92.019531 " fill-opacity="1" fill-rule="nonzero"/><g clip-path="url(#cf9d1c426f)"><path fill="#801f1a" d="M 297.496094 95.945312 C 300.5625 95.945312 302.382812 97.699219 302.382812 100.167969 C 302.382812 103 300.03125 104.511719 297.320312 104.511719 C 294.855469 104.511719 292.46875 103.316406 292.46875 100.269531 C 292.472656 97.65625 294.476562 95.945312 297.496094 95.945312 M 297.457031 102.847656 C 298.933594 102.847656 299.121094 101.359375 299.121094 100.328125 C 299.121094 99.375 298.953125 97.605469 297.324219 97.605469 C 296.6875 97.605469 295.726562 97.96875 295.726562 100.023438 C 295.726562 100.773438 295.777344 102.847656 297.457031 102.847656 " fill-opacity="1" fill-rule="nonzero"/></g></svg>