<svg xmlns="http://www.w3.org/2000/svg" xmlns:xlink="http://www.w3.org/1999/xlink" width="415" zoomAndPan="magnify" viewBox="0 0 311.25 111.749997" height="149" preserveAspectRatio="xMidYMid meet" version="1.0"><defs><clipPath id="27b5bdb914"><path d="M 242 0.0078125 L 262 0.0078125 L 262 81 L 242 81 Z M 242 0.0078125 " clip-rule="nonzero"/></clipPath><clipPath id="fc991364f2"><path d="M 267 0.0078125 L 287 0.0078125 L 287 81 L 267 81 Z M 267 0.0078125 " clip-rule="nonzero"/></clipPath><clipPath id="060eda96ab"><path d="M 292 23 L 310.5 23 L 310.5 83 L 292 83 Z M 292 23 " clip-rule="nonzero"/></clipPath><clipPath id="942194d85a"><path d="M 291 2 L 310.5 2 L 310.5 8 L 291 8 Z M 291 2 " clip-rule="nonzero"/></clipPath></defs><path fill="#801f1a" d="M 14.910156 1.582031 C 18.183594 1.464844 21.457031 1.355469 24.730469 1.355469 C 50.476562 1.355469 53.074219 15.652344 53.074219 21.847656 C 53.074219 31.097656 45.738281 39.765625 33.535156 41.789062 C 42.347656 55.648438 58.722656 76.042969 69.902344 80.652344 C 61.996094 81.21875 58.945312 81.332031 57.707031 81.332031 C 44.714844 81.332031 27.105469 52.835938 19.992188 39.539062 C 28.121094 38.75 40.09375 34.136719 40.09375 22.863281 C 40.09375 17.800781 38.175781 9.683594 24.28125 9.683594 C 21.457031 9.683594 19.308594 9.796875 16.71875 10.476562 L 16.71875 69.394531 C 16.71875 72.550781 16.71875 77.046875 21.90625 80.652344 L 0 80.652344 C 5.199219 77.046875 5.199219 72.550781 5.199219 69.394531 L 5.199219 13.0625 C 5.199219 9.910156 5.199219 5.398438 0 1.804688 C 4.972656 1.804688 9.9375 1.691406 14.910156 1.582031 " fill-opacity="1" fill-rule="nonzero"/><path fill="#801f1a" d="M 74.449219 51.703125 C 73.890625 63.636719 81.339844 73.777344 98.390625 73.777344 C 107.082031 73.777344 113.972656 71.867188 120.75 68.148438 L 113.296875 79.859375 C 107.199219 81.78125 102.109375 82.351562 96.023438 82.351562 C 76.144531 82.351562 62.714844 71.753906 62.714844 52.71875 C 62.714844 36.046875 74.113281 23.769531 92.738281 23.769531 C 113.972656 23.769531 120.292969 39.765625 119.953125 51.703125 Z M 107.082031 44.375 C 106.410156 37.0625 100.644531 32.324219 92.179688 32.324219 C 83.605469 32.324219 77.164062 37.0625 75.582031 44.375 Z M 107.082031 44.375 " fill-opacity="1" fill-rule="nonzero"/><path fill="#801f1a" d="M 152.761719 23.769531 C 155.136719 23.769531 157.507812 23.996094 159.875 24.109375 C 163.039062 24.335938 166.195312 24.445312 169.359375 24.445312 C 174.785156 24.445312 180.878906 23.882812 186.746094 22.75 L 184.15625 29.285156 C 183.246094 31.546875 182.796875 32.777344 174.554688 31.757812 L 168.230469 30.980469 C 172.75 33.457031 177.042969 38.066406 177.042969 45.507812 C 177.042969 60.597656 160.4375 63.199219 157.164062 63.636719 C 154.449219 64.089844 147.113281 64.542969 147.113281 67.46875 C 147.113281 68.148438 148.023438 69.734375 150.503906 69.734375 L 155.015625 69.734375 C 164.957031 69.734375 186.863281 69.847656 186.863281 86.847656 C 186.863281 99.460938 171.84375 108.035156 153.105469 108.035156 C 133.109375 108.035156 120.46875 100.707031 120.46875 91.472656 C 120.46875 85.84375 124.984375 81.785156 132.554688 81.785156 C 134.8125 81.785156 136.726562 82.351562 138.761719 83.464844 C 135.601562 83.691406 133.796875 86.070312 133.796875 89.109375 C 133.796875 94.964844 140.117188 100.59375 152.421875 100.59375 C 167.4375 100.59375 173.875 94.511719 173.875 87.75 C 173.875 82.6875 170.039062 77.160156 154 77.160156 C 148.8125 77.160156 144.738281 77.5 141.691406 77.5 C 136.164062 77.5 135.027344 75.25 133.796875 72.324219 C 133.335938 71.417969 133.003906 70.511719 133.003906 69.507812 C 133.003906 67.472656 134.695312 66.46875 135.824219 65.902344 L 142.480469 62.636719 C 132.886719 61.050781 125.996094 53.953125 125.996094 43.9375 C 126 33.117188 135.601562 23.769531 152.761719 23.769531 M 137.742188 42.242188 C 137.742188 50.132812 144.183594 56.667969 152.640625 56.667969 C 159.992188 56.667969 165.296875 51.929688 165.296875 44.601562 C 165.296875 37.289062 158.75 31.320312 150.613281 31.320312 C 143.167969 31.320312 137.742188 35.820312 137.742188 42.242188 " fill-opacity="1" fill-rule="nonzero"/><path fill="#801f1a" d="M 200.972656 24.789062 C 204.132812 24.222656 207.511719 23.769531 211.25 23.769531 C 229.984375 23.769531 231.792969 35.707031 231.792969 43.144531 L 231.792969 65.109375 C 231.792969 71.644531 235.40625 72.886719 239.921875 73.113281 L 242.070312 73.113281 L 236.652344 80.652344 L 234.953125 80.652344 C 231.335938 80.652344 221.066406 80.425781 221.066406 68.039062 L 221.066406 50.359375 C 217.5625 52.722656 214.738281 53.058594 209.09375 54.402344 C 204.019531 55.648438 197.691406 57.445312 197.691406 64.316406 C 197.691406 66.792969 198.703125 73.777344 209.09375 73.777344 C 212.140625 73.777344 215.53125 73.324219 218.917969 72.320312 L 211.6875 81.328125 C 209.3125 82.007812 206.945312 82.347656 204.464844 82.347656 C 193.515625 82.347656 186.175781 75.007812 186.175781 64.542969 C 186.175781 52.378906 196.902344 50.132812 205.367188 48.207031 C 215.082031 45.957031 220.613281 45.054688 220.613281 39.425781 C 220.613281 35.027344 217.003906 32.324219 210.21875 32.324219 C 207.855469 32.324219 200.742188 32.664062 193.851562 36.496094 Z M 200.972656 24.789062 " fill-opacity="1" fill-rule="nonzero"/><g clip-path="url(#27b5bdb914)"><path fill="#801f1a" d="M 251.433594 1.804688 C 253.808594 1.804688 255.496094 1.355469 257.414062 -0.00390625 L 257.414062 72.773438 C 257.414062 75.703125 258.089844 78.402344 261.363281 80.652344 L 242.734375 80.652344 C 246.007812 78.402344 246.691406 75.703125 246.691406 72.773438 L 246.691406 9.683594 C 246.691406 6.757812 246.007812 4.054688 242.734375 1.804688 Z M 251.433594 1.804688 " fill-opacity="1" fill-rule="nonzero"/></g><g clip-path="url(#fc991364f2)"><path fill="#801f1a" d="M 276.382812 1.804688 C 278.75 1.804688 280.445312 1.355469 282.367188 -0.00390625 L 282.367188 72.773438 C 282.367188 75.703125 283.039062 78.402344 286.3125 80.652344 L 267.6875 80.652344 C 270.960938 78.402344 271.640625 75.703125 271.640625 72.773438 L 271.640625 9.683594 C 271.640625 6.757812 270.960938 4.054688 267.6875 1.804688 Z M 276.382812 1.804688 " fill-opacity="1" fill-rule="nonzero"/></g><g clip-path="url(#060eda96ab)"><path fill="#801f1a" d="M 355.304688 53.058594 C 355.304688 70.171875 341.304688 82.351562 323.351562 82.351562 C 303.824219 82.351562 292.523438 68.035156 292.523438 53.058594 C 292.523438 36.046875 306.523438 23.769531 324.363281 23.769531 C 344.015625 23.769531 355.304688 38.070312 355.304688 53.058594 M 304.269531 53.058594 C 304.269531 63.636719 310.816406 73.777344 324.136719 73.777344 C 335.65625 73.777344 343.558594 65.5625 343.558594 53.058594 C 343.558594 42.46875 337.011719 32.328125 323.691406 32.328125 C 312.171875 32.328125 304.269531 40.558594 304.269531 53.058594 " fill-opacity="1" fill-rule="nonzero"/></g><path fill="#801f1a" d="M 60.78125 2.1875 L 229.496094 2.1875 L 229.496094 7.714844 L 60.78125 7.714844 Z M 60.78125 2.1875 " fill-opacity="1" fill-rule="nonzero"/><g clip-path="url(#942194d85a)"><path fill="#801f1a" d="M 291.070312 2.1875 L 403.128906 2.1875 L 403.128906 7.714844 L 291.070312 7.714844 Z M 291.070312 2.1875 " fill-opacity="1" fill-rule="nonzero"/></g></svg>